# xmcd CD database file generated by OrangeCD 5.2
#
# Track frame offsets:
#	150
#	17475
#	33025
#	54410
#	79802
#	107112
#	130362
#	153092
#	175330
#	190740
#	226072
#	242245
#
# Disc length: 3491 seconds
#
# Revision: 19
# Processed by: cddbd v1.5.1PL2 Copyright (c) Steve Scherf et al.
# Submitted via: OrangeCD 5.2
#
DISCID=890da10c
DTITLE=Joe Bonamassa - A New Day Yesterday
DYEAR=2000
DGENRE=blues
TTITLE0=Cradle Rock
TTITLE1=Walk In My Shadows
TTITLE2=A New Day Yesterday
TTITLE3=I Know Where I Belong
TTITLE4=Miss You, Hate You
TTITLE5=Nuthin' I Wouldn't Do
TTITLE6=Colour And Shape
TTITLE7=Headaches To Heartbreaks
TTITLE8=Trouble Waiting
TTITLE9=If Heartaches Were Nickels
TTITLE10=Current Situation
TTITLE11=Don't Burn Down That Bridge
EXTD=
EXTT0=
EXTT1=
EXTT2=
EXTT3=
EXTT4=
EXTT5=
EXTT6=
EXTT7=
EXTT8=
EXTT9=
EXTT10=
EXTT11=
PLAYORDER=
